<?xml version="1.0" encoding="utf-8" standalone="no"?>
<!DOCTYPE svg PUBLIC "-//W3C//DTD SVG 1.1//EN"
  "http://www.w3.org/Graphics/SVG/1.1/DTD/svg11.dtd">
<!-- Created with matplotlib (https://matplotlib.org/) -->
<svg height="248.518125pt" version="1.1" viewBox="0 0 378.465625 248.518125" width="378.465625pt" xmlns="http://www.w3.org/2000/svg" xmlns:xlink="http://www.w3.org/1999/xlink">
 <defs>
  <style type="text/css">
*{stroke-linecap:butt;stroke-linejoin:round;}
  </style>
 </defs>
 <g id="figure_1">
  <g id="patch_1">
   <path d="M 0 248.518125 
L 378.465625 248.518125 
L 378.465625 0 
L 0 0 
z
" style="fill:none;"/>
  </g>
  <g id="axes_1">
   <g id="patch_2">
    <path d="M 36.465625 224.64 
L 371.265625 224.64 
L 371.265625 7.2 
L 36.465625 7.2 
z
" style="fill:#ffffff;"/>
   </g>
   <g id="patch_3">
    <path clip-path="url(#pbd1663f050)" d="M 51.683807 224.64 
L 55.065625 224.64 
L 55.065625 223.513997 
L 51.683807 223.513997 
z
" style="fill:#1f77b4;"/>
   </g>
   <g id="patch_4">
    <path clip-path="url(#pbd1663f050)" d="M 55.065625 224.64 
L 58.447443 224.64 
L 58.447443 224.64 
L 55.065625 224.64 
z
" style="fill:#1f77b4;"/>
   </g>
   <g id="patch_5">
    <path clip-path="url(#pbd1663f050)" d="M 58.447443 224.64 
L 61.829261 224.64 
L 61.829261 224.64 
L 58.447443 224.64 
z
" style="fill:#1f77b4;"/>
   </g>
   <g id="patch_6">
    <path clip-path="url(#pbd1663f050)" d="M 61.829261 224.64 
L 65.21108 224.64 
L 65.21108 224.64 
L 61.829261 224.64 
z
" style="fill:#1f77b4;"/>
   </g>
   <g id="patch_7">
    <path clip-path="url(#pbd1663f050)" d="M 65.21108 224.64 
L 68.592898 224.64 
L 68.592898 224.64 
L 65.21108 224.64 
z
" style="fill:#1f77b4;"/>
   </g>
   <g id="patch_8">
    <path clip-path="url(#pbd1663f050)" d="M 68.592898 224.64 
L 71.974716 224.64 
L 71.974716 224.64 
L 68.592898 224.64 
z
" style="fill:#1f77b4;"/>
   </g>
   <g id="patch_9">
    <path clip-path="url(#pbd1663f050)" d="M 71.974716 224.64 
L 75.356534 224.64 
L 75.356534 224.64 
L 71.974716 224.64 
z
" style="fill:#1f77b4;"/>
   </g>
   <g id="patch_10">
    <path clip-path="url(#pbd1663f050)" d="M 75.356534 224.64 
L 78.738352 224.64 
L 78.738352 222.387994 
L 75.356534 222.387994 
z
" style="fill:#1f77b4;"/>
   </g>
   <g id="patch_11">
    <path clip-path="url(#pbd1663f050)" d="M 78.738352 224.64 
L 82.12017 224.64 
L 82.12017 224.64 
L 78.738352 224.64 
z
" style="fill:#1f77b4;"/>
   </g>
   <g id="patch_12">
    <path clip-path="url(#pbd1663f050)" d="M 82.12017 224.64 
L 85.501989 224.64 
L 85.501989 223.513997 
L 82.12017 223.513997 
z
" style="fill:#1f77b4;"/>
   </g>
   <g id="patch_13">
    <path clip-path="url(#pbd1663f050)" d="M 85.501989 224.64 
L 88.883807 224.64 
L 88.883807 223.513997 
L 85.501989 223.513997 
z
" style="fill:#1f77b4;"/>
   </g>
   <g id="patch_14">
    <path clip-path="url(#pbd1663f050)" d="M 88.883807 224.64 
L 92.265625 224.64 
L 92.265625 223.513997 
L 88.883807 223.513997 
z
" style="fill:#1f77b4;"/>
   </g>
   <g id="patch_15">
    <path clip-path="url(#pbd1663f050)" d="M 92.265625 224.64 
L 95.647443 224.64 
L 95.647443 224.64 
L 92.265625 224.64 
z
" style="fill:#1f77b4;"/>
   </g>
   <g id="patch_16">
    <path clip-path="url(#pbd1663f050)" d="M 95.647443 224.64 
L 99.029261 224.64 
L 99.029261 220.135988 
L 95.647443 220.135988 
z
" style="fill:#1f77b4;"/>
   </g>
   <g id="patch_17">
    <path clip-path="url(#pbd1663f050)" d="M 99.029261 224.64 
L 102.41108 224.64 
L 102.41108 222.387994 
L 99.029261 222.387994 
z
" style="fill:#1f77b4;"/>
   </g>
   <g id="patch_18">
    <path clip-path="url(#pbd1663f050)" d="M 102.41108 224.64 
L 105.792898 224.64 
L 105.792898 222.387994 
L 102.41108 222.387994 
z
" style="fill:#1f77b4;"/>
   </g>
   <g id="patch_19">
    <path clip-path="url(#pbd1663f050)" d="M 105.792898 224.64 
L 109.174716 224.64 
L 109.174716 221.261991 
L 105.792898 221.261991 
z
" style="fill:#1f77b4;"/>
   </g>
   <g id="patch_20">
    <path clip-path="url(#pbd1663f050)" d="M 109.174716 224.64 
L 112.556534 224.64 
L 112.556534 221.261991 
L 109.174716 221.261991 
z
" style="fill:#1f77b4;"/>
   </g>
   <g id="patch_21">
    <path clip-path="url(#pbd1663f050)" d="M 112.556534 224.64 
L 115.938352 224.64 
L 115.938352 214.505973 
L 112.556534 214.505973 
z
" style="fill:#1f77b4;"/>
   </g>
   <g id="patch_22">
    <path clip-path="url(#pbd1663f050)" d="M 115.938352 224.64 
L 119.32017 224.64 
L 119.32017 219.009985 
L 115.938352 219.009985 
z
" style="fill:#1f77b4;"/>
   </g>
   <g id="patch_23">
    <path clip-path="url(#pbd1663f050)" d="M 119.32017 224.64 
L 122.701989 224.64 
L 122.701989 213.37997 
L 119.32017 213.37997 
z
" style="fill:#1f77b4;"/>
   </g>
   <g id="patch_24">
    <path clip-path="url(#pbd1663f050)" d="M 122.701989 224.64 
L 126.083807 224.64 
L 126.083807 213.37997 
L 122.701989 213.37997 
z
" style="fill:#1f77b4;"/>
   </g>
   <g id="patch_25">
    <path clip-path="url(#pbd1663f050)" d="M 126.083807 224.64 
L 129.465625 224.64 
L 129.465625 211.127964 
L 126.083807 211.127964 
z
" style="fill:#1f77b4;"/>
   </g>
   <g id="patch_26">
    <path clip-path="url(#pbd1663f050)" d="M 129.465625 224.64 
L 132.847443 224.64 
L 132.847443 210.001961 
L 129.465625 210.001961 
z
" style="fill:#1f77b4;"/>
   </g>
   <g id="patch_27">
    <path clip-path="url(#pbd1663f050)" d="M 132.847443 224.64 
L 136.229261 224.64 
L 136.229261 207.749955 
L 132.847443 207.749955 
z
" style="fill:#1f77b4;"/>
   </g>
   <g id="patch_28">
    <path clip-path="url(#pbd1663f050)" d="M 136.229261 224.64 
L 139.61108 224.64 
L 139.61108 207.749955 
L 136.229261 207.749955 
z
" style="fill:#1f77b4;"/>
   </g>
   <g id="patch_29">
    <path clip-path="url(#pbd1663f050)" d="M 139.61108 224.64 
L 142.992898 224.64 
L 142.992898 203.245943 
L 139.61108 203.245943 
z
" style="fill:#1f77b4;"/>
   </g>
   <g id="patch_30">
    <path clip-path="url(#pbd1663f050)" d="M 142.992898 224.64 
L 146.374716 224.64 
L 146.374716 200.993938 
L 142.992898 200.993938 
z
" style="fill:#1f77b4;"/>
   </g>
   <g id="patch_31">
    <path clip-path="url(#pbd1663f050)" d="M 146.374716 224.64 
L 149.756534 224.64 
L 149.756534 195.363923 
L 146.374716 195.363923 
z
" style="fill:#1f77b4;"/>
   </g>
   <g id="patch_32">
    <path clip-path="url(#pbd1663f050)" d="M 149.756534 224.64 
L 153.138352 224.64 
L 153.138352 186.355899 
L 149.756534 186.355899 
z
" style="fill:#1f77b4;"/>
   </g>
   <g id="patch_33">
    <path clip-path="url(#pbd1663f050)" d="M 153.138352 224.64 
L 156.52017 224.64 
L 156.52017 193.111917 
L 153.138352 193.111917 
z
" style="fill:#1f77b4;"/>
   </g>
   <g id="patch_34">
    <path clip-path="url(#pbd1663f050)" d="M 156.52017 224.64 
L 159.901989 224.64 
L 159.901989 184.103893 
L 156.52017 184.103893 
z
" style="fill:#1f77b4;"/>
   </g>
   <g id="patch_35">
    <path clip-path="url(#pbd1663f050)" d="M 159.901989 224.64 
L 163.283807 224.64 
L 163.283807 175.095869 
L 159.901989 175.095869 
z
" style="fill:#1f77b4;"/>
   </g>
   <g id="patch_36">
    <path clip-path="url(#pbd1663f050)" d="M 163.283807 224.64 
L 166.665625 224.64 
L 166.665625 178.473878 
L 163.283807 178.473878 
z
" style="fill:#1f77b4;"/>
   </g>
   <g id="patch_37">
    <path clip-path="url(#pbd1663f050)" d="M 166.665625 224.64 
L 170.047443 224.64 
L 170.047443 171.71786 
L 166.665625 171.71786 
z
" style="fill:#1f77b4;"/>
   </g>
   <g id="patch_38">
    <path clip-path="url(#pbd1663f050)" d="M 170.047443 224.64 
L 173.429261 224.64 
L 173.429261 170.591857 
L 170.047443 170.591857 
z
" style="fill:#1f77b4;"/>
   </g>
   <g id="patch_39">
    <path clip-path="url(#pbd1663f050)" d="M 173.429261 224.64 
L 176.81108 224.64 
L 176.81108 135.685765 
L 173.429261 135.685765 
z
" style="fill:#1f77b4;"/>
   </g>
   <g id="patch_40">
    <path clip-path="url(#pbd1663f050)" d="M 176.81108 224.64 
L 180.192898 224.64 
L 180.192898 162.709836 
L 176.81108 162.709836 
z
" style="fill:#1f77b4;"/>
   </g>
   <g id="patch_41">
    <path clip-path="url(#pbd1663f050)" d="M 180.192898 224.64 
L 183.574716 224.64 
L 183.574716 148.071798 
L 180.192898 148.071798 
z
" style="fill:#1f77b4;"/>
   </g>
   <g id="patch_42">
    <path clip-path="url(#pbd1663f050)" d="M 183.574716 224.64 
L 186.956534 224.64 
L 186.956534 152.57581 
L 183.574716 152.57581 
z
" style="fill:#1f77b4;"/>
   </g>
   <g id="patch_43">
    <path clip-path="url(#pbd1663f050)" d="M 186.956534 224.64 
L 190.338352 224.64 
L 190.338352 145.819792 
L 186.956534 145.819792 
z
" style="fill:#1f77b4;"/>
   </g>
   <g id="patch_44">
    <path clip-path="url(#pbd1663f050)" d="M 190.338352 224.64 
L 193.72017 224.64 
L 193.72017 149.197801 
L 190.338352 149.197801 
z
" style="fill:#1f77b4;"/>
   </g>
   <g id="patch_45">
    <path clip-path="url(#pbd1663f050)" d="M 193.72017 224.64 
L 197.101989 224.64 
L 197.101989 127.803744 
L 193.72017 127.803744 
z
" style="fill:#1f77b4;"/>
   </g>
   <g id="patch_46">
    <path clip-path="url(#pbd1663f050)" d="M 197.101989 224.64 
L 200.483807 224.64 
L 200.483807 127.803744 
L 197.101989 127.803744 
z
" style="fill:#1f77b4;"/>
   </g>
   <g id="patch_47">
    <path clip-path="url(#pbd1663f050)" d="M 200.483807 224.64 
L 203.865625 224.64 
L 203.865625 122.173729 
L 200.483807 122.173729 
z
" style="fill:#1f77b4;"/>
   </g>
   <g id="patch_48">
    <path clip-path="url(#pbd1663f050)" d="M 203.865625 224.64 
L 207.247443 224.64 
L 207.247443 119.921723 
L 203.865625 119.921723 
z
" style="fill:#1f77b4;"/>
   </g>
   <g id="patch_49">
    <path clip-path="url(#pbd1663f050)" d="M 207.247443 224.64 
L 210.629261 224.64 
L 210.629261 128.929747 
L 207.247443 128.929747 
z
" style="fill:#1f77b4;"/>
   </g>
   <g id="patch_50">
    <path clip-path="url(#pbd1663f050)" d="M 210.629261 224.64 
L 214.01108 224.64 
L 214.01108 128.929747 
L 210.629261 128.929747 
z
" style="fill:#1f77b4;"/>
   </g>
   <g id="patch_51">
    <path clip-path="url(#pbd1663f050)" d="M 214.01108 224.64 
L 217.392898 224.64 
L 217.392898 116.543714 
L 214.01108 116.543714 
z
" style="fill:#1f77b4;"/>
   </g>
   <g id="patch_52">
    <path clip-path="url(#pbd1663f050)" d="M 217.392898 224.64 
L 220.774716 224.64 
L 220.774716 122.173729 
L 217.392898 122.173729 
z
" style="fill:#1f77b4;"/>
   </g>
   <g id="patch_53">
    <path clip-path="url(#pbd1663f050)" d="M 220.774716 224.64 
L 224.156534 224.64 
L 224.156534 128.929747 
L 220.774716 128.929747 
z
" style="fill:#1f77b4;"/>
   </g>
   <g id="patch_54">
    <path clip-path="url(#pbd1663f050)" d="M 224.156534 224.64 
L 227.538352 224.64 
L 227.538352 121.047726 
L 224.156534 121.047726 
z
" style="fill:#1f77b4;"/>
   </g>
   <g id="patch_55">
    <path clip-path="url(#pbd1663f050)" d="M 227.538352 224.64 
L 230.92017 224.64 
L 230.92017 115.417711 
L 227.538352 115.417711 
z
" style="fill:#1f77b4;"/>
   </g>
   <g id="patch_56">
    <path clip-path="url(#pbd1663f050)" d="M 230.92017 224.64 
L 234.301989 224.64 
L 234.301989 131.181753 
L 230.92017 131.181753 
z
" style="fill:#1f77b4;"/>
   </g>
   <g id="patch_57">
    <path clip-path="url(#pbd1663f050)" d="M 234.301989 224.64 
L 237.683807 224.64 
L 237.683807 133.433759 
L 234.301989 133.433759 
z
" style="fill:#1f77b4;"/>
   </g>
   <g id="patch_58">
    <path clip-path="url(#pbd1663f050)" d="M 237.683807 224.64 
L 241.065625 224.64 
L 241.065625 128.929747 
L 237.683807 128.929747 
z
" style="fill:#1f77b4;"/>
   </g>
   <g id="patch_59">
    <path clip-path="url(#pbd1663f050)" d="M 241.065625 224.64 
L 244.447443 224.64 
L 244.447443 126.677741 
L 241.065625 126.677741 
z
" style="fill:#1f77b4;"/>
   </g>
   <g id="patch_60">
    <path clip-path="url(#pbd1663f050)" d="M 244.447443 224.64 
L 247.829261 224.64 
L 247.829261 142.441783 
L 244.447443 142.441783 
z
" style="fill:#1f77b4;"/>
   </g>
   <g id="patch_61">
    <path clip-path="url(#pbd1663f050)" d="M 247.829261 224.64 
L 251.21108 224.64 
L 251.21108 132.307756 
L 247.829261 132.307756 
z
" style="fill:#1f77b4;"/>
   </g>
   <g id="patch_62">
    <path clip-path="url(#pbd1663f050)" d="M 251.21108 224.64 
L 254.592898 224.64 
L 254.592898 146.945795 
L 251.21108 146.945795 
z
" style="fill:#1f77b4;"/>
   </g>
   <g id="patch_63">
    <path clip-path="url(#pbd1663f050)" d="M 254.592898 224.64 
L 257.974716 224.64 
L 257.974716 144.693789 
L 254.592898 144.693789 
z
" style="fill:#1f77b4;"/>
   </g>
   <g id="patch_64">
    <path clip-path="url(#pbd1663f050)" d="M 257.974716 224.64 
L 261.356534 224.64 
L 261.356534 140.189777 
L 257.974716 140.189777 
z
" style="fill:#1f77b4;"/>
   </g>
   <g id="patch_65">
    <path clip-path="url(#pbd1663f050)" d="M 261.356534 224.64 
L 264.738352 224.64 
L 264.738352 166.087845 
L 261.356534 166.087845 
z
" style="fill:#1f77b4;"/>
   </g>
   <g id="patch_66">
    <path clip-path="url(#pbd1663f050)" d="M 264.738352 224.64 
L 268.12017 224.64 
L 268.12017 167.213848 
L 264.738352 167.213848 
z
" style="fill:#1f77b4;"/>
   </g>
   <g id="patch_67">
    <path clip-path="url(#pbd1663f050)" d="M 268.12017 224.64 
L 271.501989 224.64 
L 271.501989 177.347875 
L 268.12017 177.347875 
z
" style="fill:#1f77b4;"/>
   </g>
   <g id="patch_68">
    <path clip-path="url(#pbd1663f050)" d="M 271.501989 224.64 
L 274.883807 224.64 
L 274.883807 190.859911 
L 271.501989 190.859911 
z
" style="fill:#1f77b4;"/>
   </g>
   <g id="patch_69">
    <path clip-path="url(#pbd1663f050)" d="M 274.883807 224.64 
L 278.265625 224.64 
L 278.265625 191.985914 
L 274.883807 191.985914 
z
" style="fill:#1f77b4;"/>
   </g>
   <g id="patch_70">
    <path clip-path="url(#pbd1663f050)" d="M 278.265625 224.64 
L 281.647443 224.64 
L 281.647443 185.229896 
L 278.265625 185.229896 
z
" style="fill:#1f77b4;"/>
   </g>
   <g id="patch_71">
    <path clip-path="url(#pbd1663f050)" d="M 281.647443 224.64 
L 285.029261 224.64 
L 285.029261 194.23792 
L 281.647443 194.23792 
z
" style="fill:#1f77b4;"/>
   </g>
   <g id="patch_72">
    <path clip-path="url(#pbd1663f050)" d="M 285.029261 224.64 
L 288.41108 224.64 
L 288.41108 184.103893 
L 285.029261 184.103893 
z
" style="fill:#1f77b4;"/>
   </g>
   <g id="patch_73">
    <path clip-path="url(#pbd1663f050)" d="M 288.41108 224.64 
L 291.792898 224.64 
L 291.792898 189.733908 
L 288.41108 189.733908 
z
" style="fill:#1f77b4;"/>
   </g>
   <g id="patch_74">
    <path clip-path="url(#pbd1663f050)" d="M 291.792898 224.64 
L 295.174716 224.64 
L 295.174716 203.245943 
L 291.792898 203.245943 
z
" style="fill:#1f77b4;"/>
   </g>
   <g id="patch_75">
    <path clip-path="url(#pbd1663f050)" d="M 295.174716 224.64 
L 298.556534 224.64 
L 298.556534 210.001961 
L 295.174716 210.001961 
z
" style="fill:#1f77b4;"/>
   </g>
   <g id="patch_76">
    <path clip-path="url(#pbd1663f050)" d="M 298.556534 224.64 
L 301.938352 224.64 
L 301.938352 207.749955 
L 298.556534 207.749955 
z
" style="fill:#1f77b4;"/>
   </g>
   <g id="patch_77">
    <path clip-path="url(#pbd1663f050)" d="M 301.938352 224.64 
L 305.32017 224.64 
L 305.32017 213.37997 
L 301.938352 213.37997 
z
" style="fill:#1f77b4;"/>
   </g>
   <g id="patch_78">
    <path clip-path="url(#pbd1663f050)" d="M 305.32017 224.64 
L 308.701989 224.64 
L 308.701989 212.253967 
L 305.32017 212.253967 
z
" style="fill:#1f77b4;"/>
   </g>
   <g id="patch_79">
    <path clip-path="url(#pbd1663f050)" d="M 308.701989 224.64 
L 312.083807 224.64 
L 312.083807 213.37997 
L 308.701989 213.37997 
z
" style="fill:#1f77b4;"/>
   </g>
   <g id="patch_80">
    <path clip-path="url(#pbd1663f050)" d="M 312.083807 224.64 
L 315.465625 224.64 
L 315.465625 217.883982 
L 312.083807 217.883982 
z
" style="fill:#1f77b4;"/>
   </g>
   <g id="patch_81">
    <path clip-path="url(#pbd1663f050)" d="M 315.465625 224.64 
L 318.847443 224.64 
L 318.847443 223.513997 
L 315.465625 223.513997 
z
" style="fill:#1f77b4;"/>
   </g>
   <g id="patch_82">
    <path clip-path="url(#pbd1663f050)" d="M 318.847443 224.64 
L 322.229261 224.64 
L 322.229261 219.009985 
L 318.847443 219.009985 
z
" style="fill:#1f77b4;"/>
   </g>
   <g id="patch_83">
    <path clip-path="url(#pbd1663f050)" d="M 322.229261 224.64 
L 325.61108 224.64 
L 325.61108 221.261991 
L 322.229261 221.261991 
z
" style="fill:#1f77b4;"/>
   </g>
   <g id="patch_84">
    <path clip-path="url(#pbd1663f050)" d="M 325.61108 224.64 
L 328.992898 224.64 
L 328.992898 220.135988 
L 325.61108 220.135988 
z
" style="fill:#1f77b4;"/>
   </g>
   <g id="patch_85">
    <path clip-path="url(#pbd1663f050)" d="M 328.992898 224.64 
L 332.374716 224.64 
L 332.374716 219.009985 
L 328.992898 219.009985 
z
" style="fill:#1f77b4;"/>
   </g>
   <g id="patch_86">
    <path clip-path="url(#pbd1663f050)" d="M 332.374716 224.64 
L 335.756534 224.64 
L 335.756534 217.883982 
L 332.374716 217.883982 
z
" style="fill:#1f77b4;"/>
   </g>
   <g id="patch_87">
    <path clip-path="url(#pbd1663f050)" d="M 335.756534 224.64 
L 339.138352 224.64 
L 339.138352 221.261991 
L 335.756534 221.261991 
z
" style="fill:#1f77b4;"/>
   </g>
   <g id="patch_88">
    <path clip-path="url(#pbd1663f050)" d="M 339.138352 224.64 
L 342.52017 224.64 
L 342.52017 223.513997 
L 339.138352 223.513997 
z
" style="fill:#1f77b4;"/>
   </g>
   <g id="patch_89">
    <path clip-path="url(#pbd1663f050)" d="M 342.52017 224.64 
L 345.901989 224.64 
L 345.901989 224.64 
L 342.52017 224.64 
z
" style="fill:#1f77b4;"/>
   </g>
   <g id="patch_90">
    <path clip-path="url(#pbd1663f050)" d="M 345.901989 224.64 
L 349.283807 224.64 
L 349.283807 224.64 
L 345.901989 224.64 
z
" style="fill:#1f77b4;"/>
   </g>
   <g id="patch_91">
    <path clip-path="url(#pbd1663f050)" d="M 349.283807 224.64 
L 352.665625 224.64 
L 352.665625 220.135988 
L 349.283807 220.135988 
z
" style="fill:#1f77b4;"/>
   </g>
   <g id="patch_92">
    <path clip-path="url(#pbd1663f050)" d="M 352.665625 224.64 
L 356.047443 224.64 
L 356.047443 222.387994 
L 352.665625 222.387994 
z
" style="fill:#1f77b4;"/>
   </g>
   <g id="matplotlib.axis_1">
    <g id="xtick_1">
     <g id="line2d_1">
      <defs>
       <path d="M 0 0 
L 0 3.5 
" id="m69a5a649c8" style="stroke:#000000;stroke-width:0.8;"/>
      </defs>
      <g>
       <use style="stroke:#000000;stroke-width:0.8;" x="41.63165" xlink:href="#m69a5a649c8" y="224.64"/>
      </g>
     </g>
     <g id="text_1">
      <!-- −4 -->
      <defs>
       <path d="M 10.59375 35.5 
L 73.1875 35.5 
L 73.1875 27.203125 
L 10.59375 27.203125 
z
" id="DejaVuSans-8722"/>
       <path d="M 37.796875 64.3125 
L 12.890625 25.390625 
L 37.796875 25.390625 
z
M 35.203125 72.90625 
L 47.609375 72.90625 
L 47.609375 25.390625 
L 58.015625 25.390625 
L 58.015625 17.1875 
L 47.609375 17.1875 
L 47.609375 0 
L 37.796875 0 
L 37.796875 17.1875 
L 4.890625 17.1875 
L 4.890625 26.703125 
z
" id="DejaVuSans-52"/>
      </defs>
      <g transform="translate(34.260556 239.238437)scale(0.1 -0.1)">
       <use xlink:href="#DejaVuSans-8722"/>
       <use x="83.789062" xlink:href="#DejaVuSans-52"/>
      </g>
     </g>
    </g>
    <g id="xtick_2">
     <g id="line2d_2">
      <g>
       <use style="stroke:#000000;stroke-width:0.8;" x="85.646677" xlink:href="#m69a5a649c8" y="224.64"/>
      </g>
     </g>
     <g id="text_2">
      <!-- −2 -->
      <defs>
       <path d="M 19.1875 8.296875 
L 53.609375 8.296875 
L 53.609375 0 
L 7.328125 0 
L 7.328125 8.296875 
Q 12.9375 14.109375 22.625 23.890625 
Q 32.328125 33.6875 34.8125 36.53125 
Q 39.546875 41.84375 41.421875 45.53125 
Q 43.3125 49.21875 43.3125 52.78125 
Q 43.3125 58.59375 39.234375 62.25 
Q 35.15625 65.921875 28.609375 65.921875 
Q 23.96875 65.921875 18.8125 64.3125 
Q 13.671875 62.703125 7.8125 59.421875 
L 7.8125 69.390625 
Q 13.765625 71.78125 18.9375 73 
Q 24.125 74.21875 28.421875 74.21875 
Q 39.75 74.21875 46.484375 68.546875 
Q 53.21875 62.890625 53.21875 53.421875 
Q 53.21875 48.921875 51.53125 44.890625 
Q 49.859375 40.875 45.40625 35.40625 
Q 44.1875 33.984375 37.640625 27.21875 
Q 31.109375 20.453125 19.1875 8.296875 
z
" id="DejaVuSans-50"/>
      </defs>
      <g transform="translate(78.275583 239.238437)scale(0.1 -0.1)">
       <use xlink:href="#DejaVuSans-8722"/>
       <use x="83.789062" xlink:href="#DejaVuSans-50"/>
      </g>
     </g>
    </g>
    <g id="xtick_3">
     <g id="line2d_3">
      <g>
       <use style="stroke:#000000;stroke-width:0.8;" x="129.661703" xlink:href="#m69a5a649c8" y="224.64"/>
      </g>
     </g>
     <g id="text_3">
      <!-- 0 -->
      <defs>
       <path d="M 31.78125 66.40625 
Q 24.171875 66.40625 20.328125 58.90625 
Q 16.5 51.421875 16.5 36.375 
Q 16.5 21.390625 20.328125 13.890625 
Q 24.171875 6.390625 31.78125 6.390625 
Q 39.453125 6.390625 43.28125 13.890625 
Q 47.125 21.390625 47.125 36.375 
Q 47.125 51.421875 43.28125 58.90625 
Q 39.453125 66.40625 31.78125 66.40625 
z
M 31.78125 74.21875 
Q 44.046875 74.21875 50.515625 64.515625 
Q 56.984375 54.828125 56.984375 36.375 
Q 56.984375 17.96875 50.515625 8.265625 
Q 44.046875 -1.421875 31.78125 -1.421875 
Q 19.53125 -1.421875 13.0625 8.265625 
Q 6.59375 17.96875 6.59375 36.375 
Q 6.59375 54.828125 13.0625 64.515625 
Q 19.53125 74.21875 31.78125 74.21875 
z
" id="DejaVuSans-48"/>
      </defs>
      <g transform="translate(126.480453 239.238437)scale(0.1 -0.1)">
       <use xlink:href="#DejaVuSans-48"/>
      </g>
     </g>
    </g>
    <g id="xtick_4">
     <g id="line2d_4">
      <g>
       <use style="stroke:#000000;stroke-width:0.8;" x="173.676729" xlink:href="#m69a5a649c8" y="224.64"/>
      </g>
     </g>
     <g id="text_4">
      <!-- 2 -->
      <g transform="translate(170.495479 239.238437)scale(0.1 -0.1)">
       <use xlink:href="#DejaVuSans-50"/>
      </g>
     </g>
    </g>
    <g id="xtick_5">
     <g id="line2d_5">
      <g>
       <use style="stroke:#000000;stroke-width:0.8;" x="217.691756" xlink:href="#m69a5a649c8" y="224.64"/>
      </g>
     </g>
     <g id="text_5">
      <!-- 4 -->
      <g transform="translate(214.510506 239.238437)scale(0.1 -0.1)">
       <use xlink:href="#DejaVuSans-52"/>
      </g>
     </g>
    </g>
    <g id="xtick_6">
     <g id="line2d_6">
      <g>
       <use style="stroke:#000000;stroke-width:0.8;" x="261.706782" xlink:href="#m69a5a649c8" y="224.64"/>
      </g>
     </g>
     <g id="text_6">
      <!-- 6 -->
      <defs>
       <path d="M 33.015625 40.375 
Q 26.375 40.375 22.484375 35.828125 
Q 18.609375 31.296875 18.609375 23.390625 
Q 18.609375 15.53125 22.484375 10.953125 
Q 26.375 6.390625 33.015625 6.390625 
Q 39.65625 6.390625 43.53125 10.953125 
Q 47.40625 15.53125 47.40625 23.390625 
Q 47.40625 31.296875 43.53125 35.828125 
Q 39.65625 40.375 33.015625 40.375 
z
M 52.59375 71.296875 
L 52.59375 62.3125 
Q 48.875 64.0625 45.09375 64.984375 
Q 41.3125 65.921875 37.59375 65.921875 
Q 27.828125 65.921875 22.671875 59.328125 
Q 17.53125 52.734375 16.796875 39.40625 
Q 19.671875 43.65625 24.015625 45.921875 
Q 28.375 48.1875 33.59375 48.1875 
Q 44.578125 48.1875 50.953125 41.515625 
Q 57.328125 34.859375 57.328125 23.390625 
Q 57.328125 12.15625 50.6875 5.359375 
Q 44.046875 -1.421875 33.015625 -1.421875 
Q 20.359375 -1.421875 13.671875 8.265625 
Q 6.984375 17.96875 6.984375 36.375 
Q 6.984375 53.65625 15.1875 63.9375 
Q 23.390625 74.21875 37.203125 74.21875 
Q 40.921875 74.21875 44.703125 73.484375 
Q 48.484375 72.75 52.59375 71.296875 
z
" id="DejaVuSans-54"/>
      </defs>
      <g transform="translate(258.525532 239.238437)scale(0.1 -0.1)">
       <use xlink:href="#DejaVuSans-54"/>
      </g>
     </g>
    </g>
    <g id="xtick_7">
     <g id="line2d_7">
      <g>
       <use style="stroke:#000000;stroke-width:0.8;" x="305.721809" xlink:href="#m69a5a649c8" y="224.64"/>
      </g>
     </g>
     <g id="text_7">
      <!-- 8 -->
      <defs>
       <path d="M 31.78125 34.625 
Q 24.75 34.625 20.71875 30.859375 
Q 16.703125 27.09375 16.703125 20.515625 
Q 16.703125 13.921875 20.71875 10.15625 
Q 24.75 6.390625 31.78125 6.390625 
Q 38.8125 6.390625 42.859375 10.171875 
Q 46.921875 13.96875 46.921875 20.515625 
Q 46.921875 27.09375 42.890625 30.859375 
Q 38.875 34.625 31.78125 34.625 
z
M 21.921875 38.8125 
Q 15.578125 40.375 12.03125 44.71875 
Q 8.5 49.078125 8.5 55.328125 
Q 8.5 64.0625 14.71875 69.140625 
Q 20.953125 74.21875 31.78125 74.21875 
Q 42.671875 74.21875 48.875 69.140625 
Q 55.078125 64.0625 55.078125 55.328125 
Q 55.078125 49.078125 51.53125 44.71875 
Q 48 40.375 41.703125 38.8125 
Q 48.828125 37.15625 52.796875 32.3125 
Q 56.78125 27.484375 56.78125 20.515625 
Q 56.78125 9.90625 50.3125 4.234375 
Q 43.84375 -1.421875 31.78125 -1.421875 
Q 19.734375 -1.421875 13.25 4.234375 
Q 6.78125 9.90625 6.78125 20.515625 
Q 6.78125 27.484375 10.78125 32.3125 
Q 14.796875 37.15625 21.921875 38.8125 
z
M 18.3125 54.390625 
Q 18.3125 48.734375 21.84375 45.5625 
Q 25.390625 42.390625 31.78125 42.390625 
Q 38.140625 42.390625 41.71875 45.5625 
Q 45.3125 48.734375 45.3125 54.390625 
Q 45.3125 60.0625 41.71875 63.234375 
Q 38.140625 66.40625 31.78125 66.40625 
Q 25.390625 66.40625 21.84375 63.234375 
Q 18.3125 60.0625 18.3125 54.390625 
z
" id="DejaVuSans-56"/>
      </defs>
      <g transform="translate(302.540559 239.238437)scale(0.1 -0.1)">
       <use xlink:href="#DejaVuSans-56"/>
      </g>
     </g>
    </g>
    <g id="xtick_8">
     <g id="line2d_8">
      <g>
       <use style="stroke:#000000;stroke-width:0.8;" x="349.736835" xlink:href="#m69a5a649c8" y="224.64"/>
      </g>
     </g>
     <g id="text_8">
      <!-- 10 -->
      <defs>
       <path d="M 12.40625 8.296875 
L 28.515625 8.296875 
L 28.515625 63.921875 
L 10.984375 60.40625 
L 10.984375 69.390625 
L 28.421875 72.90625 
L 38.28125 72.90625 
L 38.28125 8.296875 
L 54.390625 8.296875 
L 54.390625 0 
L 12.40625 0 
z
" id="DejaVuSans-49"/>
      </defs>
      <g transform="translate(343.374335 239.238437)scale(0.1 -0.1)">
       <use xlink:href="#DejaVuSans-49"/>
       <use x="63.623047" xlink:href="#DejaVuSans-48"/>
      </g>
     </g>
    </g>
   </g>
   <g id="matplotlib.axis_2">
    <g id="ytick_1">
     <g id="line2d_9">
      <defs>
       <path d="M 0 0 
L -3.5 0 
" id="mbaf8af8996" style="stroke:#000000;stroke-width:0.8;"/>
      </defs>
      <g>
       <use style="stroke:#000000;stroke-width:0.8;" x="36.465625" xlink:href="#mbaf8af8996" y="224.64"/>
      </g>
     </g>
     <g id="text_9">
      <!-- 0.00 -->
      <defs>
       <path d="M 10.6875 12.40625 
L 21 12.40625 
L 21 0 
L 10.6875 0 
z
" id="DejaVuSans-46"/>
      </defs>
      <g transform="translate(7.2 228.439219)scale(0.1 -0.1)">
       <use xlink:href="#DejaVuSans-48"/>
       <use x="63.623047" xlink:href="#DejaVuSans-46"/>
       <use x="95.410156" xlink:href="#DejaVuSans-48"/>
       <use x="159.033203" xlink:href="#DejaVuSans-48"/>
      </g>
     </g>
    </g>
    <g id="ytick_2">
     <g id="line2d_10">
      <g>
       <use style="stroke:#000000;stroke-width:0.8;" x="36.465625" xlink:href="#mbaf8af8996" y="198.685655"/>
      </g>
     </g>
     <g id="text_10">
      <!-- 0.05 -->
      <defs>
       <path d="M 10.796875 72.90625 
L 49.515625 72.90625 
L 49.515625 64.59375 
L 19.828125 64.59375 
L 19.828125 46.734375 
Q 21.96875 47.46875 24.109375 47.828125 
Q 26.265625 48.1875 28.421875 48.1875 
Q 40.625 48.1875 47.75 41.5 
Q 54.890625 34.8125 54.890625 23.390625 
Q 54.890625 11.625 47.5625 5.09375 
Q 40.234375 -1.421875 26.90625 -1.421875 
Q 22.3125 -1.421875 17.546875 -0.640625 
Q 12.796875 0.140625 7.71875 1.703125 
L 7.71875 11.625 
Q 12.109375 9.234375 16.796875 8.0625 
Q 21.484375 6.890625 26.703125 6.890625 
Q 35.15625 6.890625 40.078125 11.328125 
Q 45.015625 15.765625 45.015625 23.390625 
Q 45.015625 31 40.078125 35.4375 
Q 35.15625 39.890625 26.703125 39.890625 
Q 22.75 39.890625 18.8125 39.015625 
Q 14.890625 38.140625 10.796875 36.28125 
z
" id="DejaVuSans-53"/>
      </defs>
      <g transform="translate(7.2 202.484873)scale(0.1 -0.1)">
       <use xlink:href="#DejaVuSans-48"/>
       <use x="63.623047" xlink:href="#DejaVuSans-46"/>
       <use x="95.410156" xlink:href="#DejaVuSans-48"/>
       <use x="159.033203" xlink:href="#DejaVuSans-53"/>
      </g>
     </g>
    </g>
    <g id="ytick_3">
     <g id="line2d_11">
      <g>
       <use style="stroke:#000000;stroke-width:0.8;" x="36.465625" xlink:href="#mbaf8af8996" y="172.731309"/>
      </g>
     </g>
     <g id="text_11">
      <!-- 0.10 -->
      <g transform="translate(7.2 176.530528)scale(0.1 -0.1)">
       <use xlink:href="#DejaVuSans-48"/>
       <use x="63.623047" xlink:href="#DejaVuSans-46"/>
       <use x="95.410156" xlink:href="#DejaVuSans-49"/>
       <use x="159.033203" xlink:href="#DejaVuSans-48"/>
      </g>
     </g>
    </g>
    <g id="ytick_4">
     <g id="line2d_12">
      <g>
       <use style="stroke:#000000;stroke-width:0.8;" x="36.465625" xlink:href="#mbaf8af8996" y="146.776964"/>
      </g>
     </g>
     <g id="text_12">
      <!-- 0.15 -->
      <g transform="translate(7.2 150.576182)scale(0.1 -0.1)">
       <use xlink:href="#DejaVuSans-48"/>
       <use x="63.623047" xlink:href="#DejaVuSans-46"/>
       <use x="95.410156" xlink:href="#DejaVuSans-49"/>
       <use x="159.033203" xlink:href="#DejaVuSans-53"/>
      </g>
     </g>
    </g>
    <g id="ytick_5">
     <g id="line2d_13">
      <g>
       <use style="stroke:#000000;stroke-width:0.8;" x="36.465625" xlink:href="#mbaf8af8996" y="120.822618"/>
      </g>
     </g>
     <g id="text_13">
      <!-- 0.20 -->
      <g transform="translate(7.2 124.621837)scale(0.1 -0.1)">
       <use xlink:href="#DejaVuSans-48"/>
       <use x="63.623047" xlink:href="#DejaVuSans-46"/>
       <use x="95.410156" xlink:href="#DejaVuSans-50"/>
       <use x="159.033203" xlink:href="#DejaVuSans-48"/>
      </g>
     </g>
    </g>
    <g id="ytick_6">
     <g id="line2d_14">
      <g>
       <use style="stroke:#000000;stroke-width:0.8;" x="36.465625" xlink:href="#mbaf8af8996" y="94.868273"/>
      </g>
     </g>
     <g id="text_14">
      <!-- 0.25 -->
      <g transform="translate(7.2 98.667492)scale(0.1 -0.1)">
       <use xlink:href="#DejaVuSans-48"/>
       <use x="63.623047" xlink:href="#DejaVuSans-46"/>
       <use x="95.410156" xlink:href="#DejaVuSans-50"/>
       <use x="159.033203" xlink:href="#DejaVuSans-53"/>
      </g>
     </g>
    </g>
    <g id="ytick_7">
     <g id="line2d_15">
      <g>
       <use style="stroke:#000000;stroke-width:0.8;" x="36.465625" xlink:href="#mbaf8af8996" y="68.913927"/>
      </g>
     </g>
     <g id="text_15">
      <!-- 0.30 -->
      <defs>
       <path d="M 40.578125 39.3125 
Q 47.65625 37.796875 51.625 33 
Q 55.609375 28.21875 55.609375 21.1875 
Q 55.609375 10.40625 48.1875 4.484375 
Q 40.765625 -1.421875 27.09375 -1.421875 
Q 22.515625 -1.421875 17.65625 -0.515625 
Q 12.796875 0.390625 7.625 2.203125 
L 7.625 11.71875 
Q 11.71875 9.328125 16.59375 8.109375 
Q 21.484375 6.890625 26.8125 6.890625 
Q 36.078125 6.890625 40.9375 10.546875 
Q 45.796875 14.203125 45.796875 21.1875 
Q 45.796875 27.640625 41.28125 31.265625 
Q 36.765625 34.90625 28.71875 34.90625 
L 20.21875 34.90625 
L 20.21875 43.015625 
L 29.109375 43.015625 
Q 36.375 43.015625 40.234375 45.921875 
Q 44.09375 48.828125 44.09375 54.296875 
Q 44.09375 59.90625 40.109375 62.90625 
Q 36.140625 65.921875 28.71875 65.921875 
Q 24.65625 65.921875 20.015625 65.03125 
Q 15.375 64.15625 9.8125 62.3125 
L 9.8125 71.09375 
Q 15.4375 72.65625 20.34375 73.4375 
Q 25.25 74.21875 29.59375 74.21875 
Q 40.828125 74.21875 47.359375 69.109375 
Q 53.90625 64.015625 53.90625 55.328125 
Q 53.90625 49.265625 50.4375 45.09375 
Q 46.96875 40.921875 40.578125 39.3125 
z
" id="DejaVuSans-51"/>
      </defs>
      <g transform="translate(7.2 72.713146)scale(0.1 -0.1)">
       <use xlink:href="#DejaVuSans-48"/>
       <use x="63.623047" xlink:href="#DejaVuSans-46"/>
       <use x="95.410156" xlink:href="#DejaVuSans-51"/>
       <use x="159.033203" xlink:href="#DejaVuSans-48"/>
      </g>
     </g>
    </g>
    <g id="ytick_8">
     <g id="line2d_16">
      <g>
       <use style="stroke:#000000;stroke-width:0.8;" x="36.465625" xlink:href="#mbaf8af8996" y="42.959582"/>
      </g>
     </g>
     <g id="text_16">
      <!-- 0.35 -->
      <g transform="translate(7.2 46.758801)scale(0.1 -0.1)">
       <use xlink:href="#DejaVuSans-48"/>
       <use x="63.623047" xlink:href="#DejaVuSans-46"/>
       <use x="95.410156" xlink:href="#DejaVuSans-51"/>
       <use x="159.033203" xlink:href="#DejaVuSans-53"/>
      </g>
     </g>
    </g>
    <g id="ytick_9">
     <g id="line2d_17">
      <g>
       <use style="stroke:#000000;stroke-width:0.8;" x="36.465625" xlink:href="#mbaf8af8996" y="17.005236"/>
      </g>
     </g>
     <g id="text_17">
      <!-- 0.40 -->
      <g transform="translate(7.2 20.804455)scale(0.1 -0.1)">
       <use xlink:href="#DejaVuSans-48"/>
       <use x="63.623047" xlink:href="#DejaVuSans-46"/>
       <use x="95.410156" xlink:href="#DejaVuSans-52"/>
       <use x="159.033203" xlink:href="#DejaVuSans-48"/>
      </g>
     </g>
    </g>
   </g>
   <g id="line2d_18">
    <path clip-path="url(#pbd1663f050)" d="M 51.683807 224.633176 
L 67.595239 224.499702 
L 73.962746 224.233641 
L 78.320234 223.838283 
L 81.731398 223.312114 
L 84.585039 222.65176 
L 87.071888 221.852022 
L 89.316654 220.898416 
L 91.378025 219.782605 
L 93.314686 218.482242 
L 95.170653 216.966501 
L 96.967933 215.208115 
L 98.728534 213.169921 
L 100.467128 210.812469 
L 102.205721 208.0742 
L 103.951651 204.902884 
L 105.726923 201.206842 
L 107.531539 196.925076 
L 109.380171 191.955166 
L 111.287488 186.177184 
L 113.2755 179.427883 
L 115.358878 171.547421 
L 117.566965 162.303671 
L 119.958449 151.305798 
L 122.621358 137.974465 
L 125.79044 120.913792 
L 130.954869 91.66427 
L 135.290349 67.649331 
L 137.960594 54.073274 
L 140.124667 44.173653 
L 141.980633 36.68036 
L 143.609189 30.987173 
L 145.061685 26.680824 
L 146.360129 23.493303 
L 147.526527 21.190934 
L 148.568216 19.599919 
L 149.507203 18.551175 
L 150.350824 17.925544 
L 151.121087 17.618506 
L 151.854671 17.561638 
L 152.573583 17.729062 
L 153.321839 18.137345 
L 154.121445 18.835886 
L 155.001745 19.914975 
L 155.970076 21.471242 
L 157.041108 23.632553 
L 158.229514 26.553678 
L 159.549965 30.414998 
L 161.024468 35.444566 
L 162.675032 41.896047 
L 164.560342 50.200972 
L 166.761093 60.945932 
L 169.497361 75.481872 
L 173.737475 99.382858 
L 179.283368 130.392794 
L 182.379092 146.420053 
L 185.019993 158.954811 
L 187.411477 169.255883 
L 189.634235 177.873885 
L 191.739621 185.169684 
L 193.756976 191.377039 
L 195.700973 196.656584 
L 197.593619 201.167051 
L 199.44225 205.010514 
L 201.261538 208.291005 
L 203.066154 211.09492 
L 204.863435 213.484171 
L 206.675386 215.528244 
L 208.516682 217.273471 
L 210.409328 218.76267 
L 212.375332 220.027946 
L 214.45871 221.103769 
L 216.703477 222.010368 
L 219.168318 222.763138 
L 221.955936 223.377517 
L 225.220384 223.862492 
L 229.233087 224.224245 
L 234.573577 224.468361 
L 242.892417 224.601526 
L 263.476778 224.639485 
L 356.040379 224.64 
L 356.040379 224.64 
" style="fill:none;stroke:#ff0000;stroke-linecap:square;stroke-width:1.5;"/>
   </g>
   <g id="line2d_19">
    <path clip-path="url(#pbd1663f050)" d="M 51.683807 224.555632 
L 67.683269 224.328904 
L 77.916763 223.971217 
L 85.736766 223.48266 
L 92.206974 222.861059 
L 97.804219 222.104276 
L 102.799924 221.207847 
L 107.355479 220.167282 
L 111.588258 218.974237 
L 115.571618 217.621795 
L 119.364246 216.100418 
L 123.017493 214.396066 
L 126.575374 212.490507 
L 130.067233 210.366994 
L 133.522413 208.004056 
L 136.970256 205.374934 
L 140.440108 202.447316 
L 143.968645 199.176362 
L 147.592549 195.510059 
L 151.36317 191.374141 
L 155.353866 186.6603 
L 159.68201 181.195456 
L 164.604357 174.60999 
L 170.986536 165.671824 
L 183.63352 147.88544 
L 188.137724 141.994457 
L 191.886338 137.447384 
L 195.187465 133.783745 
L 198.180486 130.786587 
L 200.938761 128.332147 
L 203.51364 126.33204 
L 205.941803 124.721625 
L 208.252592 123.450953 
L 210.468015 122.482275 
L 212.610079 121.784932 
L 214.700793 121.335928 
L 216.754827 121.120598 
L 218.79419 121.129616 
L 220.840889 121.361818 
L 222.909595 121.822154 
L 225.014981 122.520424 
L 227.179053 123.474741 
L 229.423819 124.710792 
L 231.771287 126.261334 
L 234.243465 128.165375 
L 236.869695 130.473687 
L 239.693992 133.258272 
L 242.767708 136.60813 
L 246.186208 140.672056 
L 250.103546 145.686602 
L 254.901184 152.207735 
L 262.493776 162.960868 
L 271.201415 175.187826 
L 276.395188 182.09383 
L 280.855378 187.662635 
L 284.934103 192.40569 
L 288.770747 196.531649 
L 292.453337 200.169825 
L 296.033226 203.397604 
L 299.554428 206.275699 
L 303.046287 208.844719 
L 306.538146 211.13959 
L 310.066683 213.193471 
L 313.661244 215.028533 
L 317.35117 216.662267 
L 321.173142 218.110861 
L 325.178509 219.390203 
L 329.425959 220.511659 
L 333.98885 221.483892 
L 338.969884 222.314521 
L 344.515777 223.009625 
L 350.853941 223.574416 
L 356.040379 223.899115 
L 356.040379 223.899115 
" style="fill:none;stroke:#008000;stroke-linecap:square;stroke-width:1.5;"/>
   </g>
   <g id="patch_93">
    <path d="M 36.465625 224.64 
L 36.465625 7.2 
" style="fill:none;stroke:#000000;stroke-linecap:square;stroke-linejoin:miter;stroke-width:0.8;"/>
   </g>
   <g id="patch_94">
    <path d="M 371.265625 224.64 
L 371.265625 7.2 
" style="fill:none;stroke:#000000;stroke-linecap:square;stroke-linejoin:miter;stroke-width:0.8;"/>
   </g>
   <g id="patch_95">
    <path d="M 36.465625 224.64 
L 371.265625 224.64 
" style="fill:none;stroke:#000000;stroke-linecap:square;stroke-linejoin:miter;stroke-width:0.8;"/>
   </g>
   <g id="patch_96">
    <path d="M 36.465625 7.2 
L 371.265625 7.2 
" style="fill:none;stroke:#000000;stroke-linecap:square;stroke-linejoin:miter;stroke-width:0.8;"/>
   </g>
   <g id="legend_1">
    <g id="patch_97">
     <path d="M 301.078125 44.55625 
L 364.265625 44.55625 
Q 366.265625 44.55625 366.265625 42.55625 
L 366.265625 14.2 
Q 366.265625 12.2 364.265625 12.2 
L 301.078125 12.2 
Q 299.078125 12.2 299.078125 14.2 
L 299.078125 42.55625 
Q 299.078125 44.55625 301.078125 44.55625 
z
" style="fill:#ffffff;opacity:0.8;stroke:#cccccc;stroke-linejoin:miter;"/>
    </g>
    <g id="line2d_20">
     <path d="M 303.078125 20.298437 
L 323.078125 20.298437 
" style="fill:none;stroke:#ff0000;stroke-linecap:square;stroke-width:1.5;"/>
    </g>
    <g id="line2d_21"/>
    <g id="text_18">
     <!-- N(1,1) -->
     <defs>
      <path d="M 9.8125 72.90625 
L 23.09375 72.90625 
L 55.421875 11.921875 
L 55.421875 72.90625 
L 64.984375 72.90625 
L 64.984375 0 
L 51.703125 0 
L 19.390625 60.984375 
L 19.390625 0 
L 9.8125 0 
z
" id="DejaVuSans-78"/>
      <path d="M 31 75.875 
Q 24.46875 64.65625 21.28125 53.65625 
Q 18.109375 42.671875 18.109375 31.390625 
Q 18.109375 20.125 21.3125 9.0625 
Q 24.515625 -2 31 -13.1875 
L 23.1875 -13.1875 
Q 15.875 -1.703125 12.234375 9.375 
Q 8.59375 20.453125 8.59375 31.390625 
Q 8.59375 42.28125 12.203125 53.3125 
Q 15.828125 64.359375 23.1875 75.875 
z
" id="DejaVuSans-40"/>
      <path d="M 11.71875 12.40625 
L 22.015625 12.40625 
L 22.015625 4 
L 14.015625 -11.625 
L 7.71875 -11.625 
L 11.71875 4 
z
" id="DejaVuSans-44"/>
      <path d="M 8.015625 75.875 
L 15.828125 75.875 
Q 23.140625 64.359375 26.78125 53.3125 
Q 30.421875 42.28125 30.421875 31.390625 
Q 30.421875 20.453125 26.78125 9.375 
Q 23.140625 -1.703125 15.828125 -13.1875 
L 8.015625 -13.1875 
Q 14.5 -2 17.703125 9.0625 
Q 20.90625 20.125 20.90625 31.390625 
Q 20.90625 42.671875 17.703125 53.65625 
Q 14.5 64.65625 8.015625 75.875 
z
" id="DejaVuSans-41"/>
     </defs>
     <g transform="translate(331.078125 23.798437)scale(0.1 -0.1)">
      <use xlink:href="#DejaVuSans-78"/>
      <use x="74.804688" xlink:href="#DejaVuSans-40"/>
      <use x="113.818359" xlink:href="#DejaVuSans-49"/>
      <use x="177.441406" xlink:href="#DejaVuSans-44"/>
      <use x="209.228516" xlink:href="#DejaVuSans-49"/>
      <use x="272.851562" xlink:href="#DejaVuSans-41"/>
     </g>
    </g>
    <g id="line2d_22">
     <path d="M 303.078125 34.976562 
L 323.078125 34.976562 
" style="fill:none;stroke:#008000;stroke-linecap:square;stroke-width:1.5;"/>
    </g>
    <g id="line2d_23"/>
    <g id="text_19">
     <!-- N(4,2) -->
     <g transform="translate(331.078125 38.476562)scale(0.1 -0.1)">
      <use xlink:href="#DejaVuSans-78"/>
      <use x="74.804688" xlink:href="#DejaVuSans-40"/>
      <use x="113.818359" xlink:href="#DejaVuSans-52"/>
      <use x="177.441406" xlink:href="#DejaVuSans-44"/>
      <use x="209.228516" xlink:href="#DejaVuSans-50"/>
      <use x="272.851562" xlink:href="#DejaVuSans-41"/>
     </g>
    </g>
   </g>
  </g>
 </g>
 <defs>
  <clipPath id="pbd1663f050">
   <rect height="217.44" width="334.8" x="36.465625" y="7.2"/>
  </clipPath>
 </defs>
</svg>
